HIERARCHY
ROOT root
{
	OFFSET 0.000000 0.000000 0.000000
	CHANNELS 6 Xposition Yposition Zposition Zrotation Yrotation Xrotation
	JOINT lhip
	{
		OFFSET 0.058581 -0.082280 -0.017664
		CHANNELS 3 Zrotation Yrotation Xrotation
		JOINT lknee
		{
			OFFSET 0.043451 -0.386469 0.008037
			CHANNELS 3 Zrotation Yrotation Xrotation
			JOINT lankle
			{
				OFFSET -0.014790 -0.426874 -0.037428
				CHANNELS 3 Zrotation Yrotation Xrotation
				JOINT ltoe
				{
					OFFSET 0.041054 -0.060286 0.122042
					CHANNELS 3 Zrotation Yrotation Xrotation
					End Site
					{
						OFFSET 0.000000 0.000000 0.000000
					}
				}
			}
		}
	}
	JOINT rhip
	{
		OFFSET -0.060310 -0.090513 -0.013543
		CHANNELS 3 Zrotation Yrotation Xrotation
		JOINT rknee
		{
			OFFSET -0.043257 -0.383688 -0.004843
			CHANNELS 3 Zrotation Yrotation Xrotation
			JOINT rankle
			{
				OFFSET 0.019056 -0.420046 -0.034562
				CHANNELS 3 Zrotation Yrotation Xrotation
				JOINT rtoe
				{
					OFFSET -0.034840 -0.062106 0.130323
					CHANNELS 3 Zrotation Yrotation Xrotation
					End Site
					{
						OFFSET 0.000000 0.000000 0.000000
					}
				}
			}
		}
	}
	JOINT lowerback
	{
		OFFSET 0.004439 0.124404 -0.038385
		CHANNELS 3 Zrotation Yrotation Xrotation
		JOINT upperback
		{
			OFFSET 0.004488 0.137956 0.026820
			CHANNELS 3 Zrotation Yrotation Xrotation
			JOINT chest
			{
				OFFSET -0.002265 0.056032 0.002855
				CHANNELS 3 Zrotation Yrotation Xrotation
				JOINT lowerneck
				{
					OFFSET -0.013390 0.211636 -0.033468
					CHANNELS 3 Zrotation Yrotation Xrotation
					JOINT upperneck
					{
						OFFSET 0.010113 0.088937 0.050410
						CHANNELS 3 Zrotation Yrotation Xrotation
						End Site
						{
							OFFSET 0.000000 0.000000 0.000000
						}
					}
				}
				JOINT lclavicle
				{
					OFFSET 0.071702 0.114000 -0.018898
					CHANNELS 3 Zrotation Yrotation Xrotation
					JOINT lshoulder
					{
						OFFSET 0.122921 0.045205 -0.019046
						CHANNELS 3 Zrotation Yrotation Xrotation
						JOINT lelbow
						{
							OFFSET 0.255332 -0.015649 -0.022946
							CHANNELS 3 Zrotation Yrotation Xrotation
							JOINT lwrist
							{
								OFFSET 0.265709 0.012698 -0.007375
								CHANNELS 3 Zrotation Yrotation Xrotation
								End Site
								{
									OFFSET 0.000000 0.000000 0.000000
								}
							}
						}
					}
				}
				JOINT rclavicle
				{
					OFFSET -0.082954 0.112472 -0.023707
					CHANNELS 3 Zrotation Yrotation Xrotation
					JOINT rshoulder
					{
						OFFSET -0.113228 0.046853 -0.008472
						CHANNELS 3 Zrotation Yrotation Xrotation
						JOINT relbow
						{
							OFFSET -0.260127 -0.014369 -0.031269
							CHANNELS 3 Zrotation Yrotation Xrotation
							JOINT rwrist
							{
								OFFSET -0.269108 0.006794 -0.006027
								CHANNELS 3 Zrotation Yrotation Xrotation
								End Site
								{
									OFFSET 0.000000 0.000000 0.000000
								}
							}
						}
					}
				}
			}
		}
	}
}
MOTION
Frames: 11
Frame Time: 0.033333
-0.818488 1.217341 0.991995 40.278805 0.154246 87.485939 -2.474238 2.411014 4.582653 -1.909681 -3.150883 4.584606 4.273362 12.420473 -16.121198 0.000000 -0.000000 0.000000 5.171509 -0.386710 -1.110385 -0.262318 -2.502227 14.371290 0.587280 -9.061771 -20.252555 0.000000 -0.000000 0.000000 -0.255376 -0.862494 10.018507 1.557357 -0.481486 -3.505754 0.804447 -1.734105 3.540602 2.382810 6.529371 -10.298187 -4.358463 -0.225148 13.812047 -31.659592 7.016999 0.333088 -57.651884 -4.710753 8.358976 14.969272 -34.714390 -1.426596 3.516831 -5.175542 -7.639828 32.190149 -0.686204 0.748582 55.000366 3.418971 16.678392 -16.056296 27.666722 -6.129678 1.475520 4.169524 -4.435302 
-0.818524 1.217030 0.991864 40.221222 0.160724 87.658035 -2.504922 2.266672 4.479264 -1.865128 -3.168420 4.451332 4.238947 12.606781 -15.990856 0.000000 -0.000000 0.000000 5.192222 -0.298971 -1.264022 -0.190502 -2.304153 14.296128 0.719444 -9.267778 -20.297754 0.000000 -0.000000 0.000000 -0.141108 -1.006589 9.865819 1.522916 -0.469848 -3.257120 0.768292 -1.682721 3.534008 2.493312 6.465571 -10.319819 -4.641279 -0.181688 14.100031 -31.774797 6.947833 0.515087 -57.524786 -4.852111 8.400209 15.244406 -34.987905 -1.675370 3.348789 -4.868149 -8.073763 32.172599 -0.508513 1.027710 55.080864 3.541642 16.798298 -16.398625 27.773181 -6.438446 1.479645 4.069739 -4.537763 
-0.819373 1.216949 0.991716 40.497192 0.145117 87.842512 -2.429197 2.030201 4.128756 -1.943432 -3.018607 4.693654 4.203378 12.505461 -16.063407 0.000000 -0.000000 0.000000 5.243097 -0.350374 -1.459975 -0.192015 -2.389903 14.276031 0.667479 -9.457531 -20.248608 0.000000 -0.000000 0.000000 -0.234264 -0.963879 9.991106 1.630456 -0.607200 -3.475372 0.855701 -1.818459 3.652613 2.391863 6.467845 -10.069509 -4.644304 -0.180997 14.398183 -31.852491 6.847350 0.653466 -57.462890 -4.995449 8.476213 15.172798 -35.041451 -1.677141 3.571161 -5.081469 -8.138936 32.117583 -0.638830 0.951513 55.022685 3.443663 17.033641 -16.280568 28.173755 -5.894649 1.078362 3.966467 -4.306303 
-0.818869 1.215685 0.991755 40.319975 0.039190 87.854001 -2.621649 2.248837 4.344192 -1.727563 -3.164060 4.405447 4.271104 12.552536 -16.014069 0.000000 -0.000000 0.000000 5.076391 -0.509274 -1.390510 -0.113358 -2.338088 14.261350 0.733663 -9.211218 -20.329960 0.000000 -0.000000 0.000000 -0.182338 -0.944388 9.927164 1.572900 -0.576641 -3.137990 0.786757 -1.707146 3.688944 2.394198 6.483639 -9.761067 -4.750569 -0.199215 14.419354 -31.794160 6.858870 0.610638 -57.497424 -5.031206 8.524701 15.227397 -35.278969 -1.710465 3.554835 -4.895352 -7.851535 32.068770 -0.645679 0.887878 55.076952 3.474991 16.822045 -16.396649 28.146455 -6.455113 1.416178 4.144583 -4.592711 
-0.819916 1.215443 0.991778 40.319939 0.008584 88.044776 -2.567065 1.982697 4.064907 -1.840715 -2.959072 4.510052 4.212724 12.644412 -15.991025 0.000000 -0.000000 0.000000 5.121471 -0.301196 -1.700308 -0.112876 -2.393587 14.380889 0.712852 -9.312794 -20.350147 0.000000 -0.000000 0.000000 -0.313745 -0.926244 10.096685 1.633278 -0.586687 -3.326941 0.855904 -1.824277 3.746851 2.293283 6.572815 -9.683942 -4.732362 -0.207171 14.620332 -31.800705 6.944831 0.522970 -57.608328 -5.031531 8.628633 15.415739 -35.270547 -1.809708 3.548530 -5.064205 -8.023131 32.121949 -0.680147 0.922700 55.003143 3.598993 16.983378 -16.433129 28.218206 -6.383743 1.351162 4.186381 -4.621525 
-0.819492 1.214752 0.991740 40.223021 -0.118646 88.003063 -2.709565 2.055106 4.161051 -1.841289 -2.995759 4.499618 4.189317 12.744480 -15.949639 0.000000 -0.000000 0.000000 4.927600 -0.368949 -1.652288 -0.010734 -2.252577 14.482284 0.746539 -9.262496 -20.421241 0.000000 -0.000000 0.000000 -0.222842 -0.973412 10.205988 1.559869 -0.598543 -3.090135 0.825258 -1.808976 3.907752 2.169155 6.777621 -9.712737 -4.993400 -0.021804 14.507487 -31.973131 6.923409 0.279453 -57.463511 -5.076894 8.575127 15.090507 -35.231830 -1.644444 3.715625 -5.028613 -7.982049 32.128014 -0.810295 0.696689 54.873717 3.772585 17.057177 -16.149915 28.402672 -6.062185 1.137380 4.172287 -4.244008 
-0.820282 1.213858 0.991490 40.165517 -0.171771 88.155786 -2.698116 2.078044 3.946626 -1.851302 -2.974799 4.646696 4.231544 12.687475 -16.047517 0.000000 -0.000000 0.000000 4.965371 -0.266672 -1.897287 -0.049417 -2.245958 14.674831 0.704813 -9.219589 -20.584621 0.000000 -0.000000 0.000000 -0.287467 -0.873168 10.337960 1.576096 -0.558291 -3.181009 0.824385 -1.929246 3.811507 2.134284 6.811951 -9.320205 -4.934825 0.083540 14.759121 -31.736629 6.803499 0.558477 -57.516900 -5.066852 8.618178 14.990883 -35.258929 -1.681258 3.871742 -4.943748 -8.159086 32.172159 -0.750388 0.975301 54.864142 3.706963 16.989462 -16.306908 28.625438 -6.440517 1.244582 4.251687 -4.714600 
-0.819875 1.212647 0.991566 39.997010 -0.222084 88.132163 -2.728560 2.281053 4.135477 -1.820989 -3.123412 4.478181 4.199760 12.771758 -16.020190 0.000000 -0.000000 0.000000 4.923631 -0.272474 -1.763484 -0.008932 -2.016220 14.656490 0.670054 -9.105824 -20.481093 0.000000 -0.000000 0.000000 -0.105104 -1.106219 10.412427 1.477654 -0.506560 -2.927501 0.711915 -1.730408 3.990911 2.019567 6.884792 -9.431352 -5.127631 0.172714 14.581425 -32.032563 6.910599 0.100985 -57.374156 -5.003260 8.541058 15.022297 -35.361886 -1.466920 3.781683 -4.904903 -7.931216 32.314021 -0.889124 0.895026 54.730594 3.924470 17.064471 -16.154848 28.878602 -6.052932 0.990744 4.112278 -4.112666 
-0.821100 1.211543 0.991304 39.958687 -0.238631 88.355370 -2.621317 2.115518 3.900962 -1.883790 -2.909455 4.530455 4.261543 12.745011 -16.029276 0.000000 -0.000000 0.000000 5.105994 -0.102474 -2.014194 -0.143611 -2.096927 14.687834 0.651274 -9.215940 -20.559859 0.000000 -0.000000 0.000000 -0.266408 -0.963302 10.537067 1.593448 -0.461462 -2.996400 0.833054 -1.818593 3.848896 1.994381 6.874907 -9.150034 -5.131979 0.250238 14.773772 -31.869418 6.802252 0.114872 -57.514320 -4.956184 8.691469 14.909865 -35.228133 -1.328971 2.929746 -4.937160 -8.213978 32.250278 -1.014807 0.818908 54.808248 3.899313 16.951142 -16.260021 28.805297 -6.391501 1.394680 4.232361 -4.586686 
-0.820367 1.209472 0.991199 39.903649 -0.311593 88.292582 -2.757693 2.209895 4.241294 -1.687594 -3.091311 4.198222 4.072366 12.833080 -16.000544 0.000000 -0.000000 0.000000 5.037170 -0.059771 -1.797093 -0.093217 -2.173148 14.620456 0.623999 -9.220076 -20.767107 0.000000 -0.000000 0.000000 -0.154662 -1.175163 10.682615 1.522381 -0.481906 -2.908272 0.789163 -1.775770 3.973077 1.903102 7.056431 -9.055570 -5.276399 0.385330 15.026745 -31.820019 6.956940 0.041721 -57.648032 -4.951662 8.680636 14.918430 -35.313779 -1.557250 3.819546 -5.033020 -7.943768 32.184267 -0.959142 0.803635 54.785123 3.860550 17.098697 -16.153029 28.934979 -6.140459 1.070714 4.276916 -4.344045 
-0.820446 1.207923 0.990903 39.646000 -0.425493 88.469686 -2.792258 2.184157 4.135791 -1.772174 -2.885057 4.196369 4.078080 12.927661 -15.996563 0.000000 -0.000000 0.000000 4.919167 0.076713 -1.934642 0.032539 -2.050118 14.716633 0.602729 -9.097609 -20.782599 0.000000 -0.000000 0.000000 -0.141077 -1.082813 10.541945 1.441956 -0.339698 -2.812387 0.710241 -1.782555 4.041133 1.795436 7.118271 -8.800879 -5.282342 0.448833 15.006553 -31.812074 6.907954 -0.000606 -57.632377 -4.918830 8.717644 15.050219 -35.359094 -1.491983 3.872254 -4.925714 -7.814465 32.335138 -1.100212 0.836730 54.743882 3.851593 17.178061 -16.144789 29.151705 -5.838564 0.858190 4.085460 -4.117769 
